<?xml version="1.0" encoding="UTF-8" standalone="no"?><!-- Generator: Gravit.io --><svg xmlns="http://www.w3.org/2000/svg" xmlns:xlink="http://www.w3.org/1999/xlink" style="isolation:isolate" viewBox="0 0 45 45" width="45pt" height="45pt"><defs><clipPath id="_clipPath_UuVdEjYncXeb8NpdUKYOrIGRBxgpBzmo"><rect width="45" height="45"/></clipPath></defs><g clip-path="url(#_clipPath_UuVdEjYncXeb8NpdUKYOrIGRBxgpBzmo)"><g><g><rect x="3" y="6.82" width="7.639" height="14.273" transform="matrix(1,0,0,1,0,0)" fill="rgb(93,93,93)"/><rect x="34.361" y="23.907" width="7.639" height="14.273" transform="matrix(-1,0,0,-1,76.361,62.088)" fill="rgb(93,93,93)"/><rect x="27.224" y="-0.317" width="7.639" height="14.273" transform="matrix(0,1,-1,0,37.863,-24.224)" fill="rgb(93,93,93)"/><rect x="10.137" y="31.044" width="7.639" height="14.273" transform="matrix(0,-1,1,0,-24.224,52.137)" fill="rgb(93,93,93)"/><rect x="13.454" y="3" width="7.639" height="18.093" transform="matrix(1,0,0,1,0,0)" fill="rgb(150,159,212)"/><rect x="23.907" y="23.907" width="7.639" height="18.093" transform="matrix(-1,0,0,-1,55.454,65.907)" fill="rgb(150,159,212)"/><rect x="29.134" y="8.227" width="7.639" height="18.093" transform="matrix(0,1,-1,0,50.227,-15.68)" fill="rgb(150,159,212)"/><rect x="8.227" y="18.68" width="7.639" height="18.093" transform="matrix(0,-1,1,0,-15.68,39.773)" fill="rgb(150,159,212)"/></g></g></g></svg>