<?xml version="1.0" encoding="UTF-8" standalone="no"?><!-- Generator: Gravit.io --><svg xmlns="http://www.w3.org/2000/svg" xmlns:xlink="http://www.w3.org/1999/xlink" style="isolation:isolate" viewBox="0 0 45 45" width="45pt" height="45pt"><defs><clipPath id="_clipPath_u7TNMnaqcHQ6cCNJmqWyVhDl173yO4QN"><rect width="45" height="45"/></clipPath></defs><g clip-path="url(#_clipPath_u7TNMnaqcHQ6cCNJmqWyVhDl173yO4QN)"><g><g><rect x="2.64" y="2.64" width="7.78" height="18.427" transform="matrix(1,0,0,1,0,0)" fill="rgb(93,93,93)"/><rect x="34.58" y="23.933" width="7.78" height="18.427" transform="matrix(-1,0,0,-1,76.94,66.293)" fill="rgb(93,93,93)"/><rect x="29.257" y="-2.684" width="7.78" height="18.427" transform="matrix(0,1,-1,0,39.677,-26.617)" fill="rgb(93,93,93)"/><rect x="7.963" y="29.257" width="7.78" height="18.427" transform="matrix(0,-1,1,0,-26.617,50.323)" fill="rgb(93,93,93)"/><rect x="13.287" y="2.64" width="7.78" height="10.647" transform="matrix(1,0,0,1,0,0)" fill="rgb(197,212,150)"/><rect x="23.933" y="31.713" width="7.78" height="10.647" transform="matrix(-1,0,0,-1,55.647,74.074)" fill="rgb(197,212,150)"/><rect x="33.147" y="11.853" width="7.78" height="10.647" transform="matrix(0,1,-1,0,54.213,-19.86)" fill="rgb(197,212,150)"/><rect x="4.073" y="22.5" width="7.78" height="10.647" transform="matrix(0,-1,1,0,-19.86,35.787)" fill="rgb(197,212,150)"/></g></g></g></svg>