<?xml version="1.0" encoding="UTF-8" standalone="no"?><!-- Generator: Gravit.io --><svg xmlns="http://www.w3.org/2000/svg" xmlns:xlink="http://www.w3.org/1999/xlink" style="isolation:isolate" viewBox="0 0 21 21" width="21pt" height="21pt"><defs><clipPath id="_clipPath_vAvBjWMZ5hDXFGZ9ZSr8MswX5liEvHKU"><rect width="21" height="21"/></clipPath></defs><g clip-path="url(#_clipPath_vAvBjWMZ5hDXFGZ9ZSr8MswX5liEvHKU)"><clipPath id="_clipPath_Ybv2LkdUmLrcD1cNL5BvLaf8Co7boXzp"><rect x="0" y="0" width="21" height="21" transform="matrix(1,0,0,1,0,0)" fill="rgb(255,255,255)"/></clipPath><g clip-path="url(#_clipPath_Ybv2LkdUmLrcD1cNL5BvLaf8Co7boXzp)"><g><g style="opacity:0.65;"><g style="opacity:0.47;"><g opacity="0.47"><rect x="0.969" y="1.406" width="3.734" height="8.843" transform="matrix(1,0,0,1,0,0)" fill="rgb(125,125,125)"/></g></g><g style="opacity:0.47;"><g opacity="0.47"><rect x="16.298" y="11.501" width="3.734" height="8.843" transform="matrix(-1,0,0,-1,36.33,31.845)" fill="rgb(125,125,125)"/></g></g><g style="opacity:0.47;"><g opacity="0.47"><rect x="13.743" y="-1.148" width="3.734" height="8.843" transform="matrix(0,1,-1,0,18.884,-12.336)" fill="rgb(125,125,125)"/></g></g><g style="opacity:0.47;"><g opacity="0.47"><rect x="3.524" y="14.055" width="3.734" height="8.843" transform="matrix(0,-1,1,0,-13.085,23.867)" fill="rgb(125,125,125)"/></g></g><g style="opacity:0.47;"><g opacity="0.47"><rect x="6.078" y="1.406" width="3.734" height="8.843" transform="matrix(1,0,0,1,0,0)" fill="rgb(125,125,125)"/></g></g><g style="opacity:0.47;"><g opacity="0.47"><rect x="11.188" y="11.501" width="3.734" height="8.843" transform="matrix(-1,0,0,-1,26.11,31.845)" fill="rgb(125,125,125)"/></g></g><g style="opacity:0.47;"><g opacity="0.47"><rect x="13.743" y="3.961" width="3.734" height="8.843" transform="matrix(0,1,-1,0,23.993,-7.227)" fill="rgb(125,125,125)"/></g></g><g style="opacity:0.47;"><g opacity="0.47"><rect x="3.523" y="9.071" width="3.734" height="8.843" transform="matrix(0,-1,1,0,-8.101,18.883)" fill="rgb(125,125,125)"/></g></g></g></g></g></g></svg>